<svg width="43" height="64" viewBox="0 0 43 64" fill="none" xmlns="http://www.w3.org/2000/svg">
<path d="M23.1 63.22L41.88 44.5C42.1515 44.2587 42.3709 43.9645 42.5247 43.6355C42.6786 43.3064 42.7637 42.9495 42.7749 42.5864C42.786 42.2233 42.723 41.8618 42.5896 41.524C42.4562 41.1861 42.2553 40.879 41.9991 40.6215C41.7429 40.364 41.4369 40.1614 41.0998 40.0262C40.7626 39.8911 40.4014 39.8261 40.0383 39.8353C39.6752 39.8445 39.3178 39.9278 38.9879 40.0799C38.6581 40.232 38.3628 40.4498 38.12 40.72L24 54.79V2.67C24.0223 2.3063 23.9699 1.94188 23.846 1.59919C23.7222 1.2565 23.5295 0.942781 23.2799 0.677358C23.0302 0.411934 22.7289 0.200422 22.3944 0.0558426C22.0599 -0.0887367 21.6994 -0.163322 21.335 -0.163322C20.9706 -0.163322 20.6101 -0.0887367 20.2756 0.0558426C19.9411 0.200422 19.6398 0.411934 19.3901 0.677358C19.1405 0.942781 18.9478 1.2565 18.824 1.59919C18.7001 1.94188 18.6477 2.3063 18.67 2.67V55L4.56 40.73C4.05952 40.2311 3.38167 39.951 2.675 39.951C1.96833 39.951 1.29048 40.2311 0.79 40.73C0.539793 40.975 0.34103 41.2675 0.205371 41.5903C0.0697127 41.9132 -0.000109654 42.2598 1.29259e-07 42.61C-6.85149e-06 43.3134 0.276553 43.9887 0.77 44.49L19.32 63.21C19.568 63.4585 19.8626 63.6557 20.1869 63.7903C20.5112 63.9248 20.8589 63.9941 21.21 63.9941C21.5611 63.9941 21.9088 63.9248 22.2331 63.7903C22.5574 63.6557 22.852 63.4585 23.1 63.21V63.22Z" fill="white"/>
</svg>
